                                                                        S      1
,,19Hback housing top v1,19Hback housing top v1,7Hunknown,7Hunknown,32, G      1
38,7,99,15,,1.,2,2HMM,1,0.08,15H20170502.143812,0.01,10000.,7Hunknown,7HG      2
unknown,11,0,;                                                          G      3
     186       1                                                00000000D      1
     186            -127       1       0                               0D      2
     514       2                                                00010000D      3
     514                       1       1                               0D      4
     510       3                                                00010000D      5
     510            -127       1       1                               0D      6
     510       4                                                00010000D      7
     510            -127       1       1                               0D      8
     510       5                                                00010000D      9
     510            -127       1       1                               0D     10
     510       6                                                00010000D     11
     510            -127       1       1                               0D     12
     510       7                                                00010000D     13
     510            -127       1       1                               0D     14
     510       8                                                00010000D     15
     510            -127       1       1                               0D     16
     510       9                                                00010000D     17
     510            -127       1       1                               0D     18
     510      10                                                00010000D     19
     510            -127       1       1                               0D     20
     510      11                                                00010000D     21
     510            -127       1       1                               0D     22
     510      12                                                00010000D     23
     510            -127       1       1                               0D     24
     510      13                                                00010000D     25
     510            -127       1       1                               0D     26
     508      14                                                00010000D     27
     508                       1       1                               0D     28
     508      15                                                00010000D     29
     508                       1       1                               0D     30
     508      16                                                00010000D     31
     508                       1       1                               0D     32
     508      17                                                00010000D     33
     508                       1       1                               0D     34
     508      18                                                00010000D     35
     508                       1       1                               0D     36
     508      19                                                00010000D     37
     508                       1       1                               0D     38
     508      20                                                00010000D     39
     508                       1       1                               0D     40
     508      21                                                00010000D     41
     508                       1       1                               0D     42
     508      22                                                00010000D     43
     508                       1       1                               0D     44
     508      23                                                00010000D     45
     508                       1       1                               0D     46
     508      24                                                00010000D     47
     508                       1       1                               0D     48
     508      25                                                00010000D     49
     508                       1       1                               0D     50
     126      26                                                00010000D     51
     126       0               2       0                               0D     52
     126      28                                                00010000D     53
     126       0               2       0                               0D     54
     126      30                                                00010000D     55
     126       0               2       0                               0D     56
     126      32                                                00010000D     57
     126       0               2       0                               0D     58
     126      34                                                00010000D     59
     126       0               3       0                               0D     60
     126      37                                                00010000D     61
     126       0               2       0                               0D     62
     126      39                                                00010000D     63
     126       0               2       0                               0D     64
     126      41                                                00010000D     65
     126       0               2       0                               0D     66
     126      43                                                00010000D     67
     126       0               2       0                               0D     68
     126      45                                                00010000D     69
     126       0               2       0                               0D     70
     126      47                                                00010000D     71
     126       0               3       0                               0D     72
     126      50                                                00010000D     73
     126       0               2       0                               0D     74
     126      52                                                00010000D     75
     126       0               2       0                               0D     76
     126      54                                                00010000D     77
     126       0               2       0                               0D     78
     126      56                                                00010000D     79
     126       0               2       0                               0D     80
     126      58                                                00010000D     81
     126       0               2       0                               0D     82
     126      60                                                00010000D     83
     126       0               2       0                               0D     84
     126      62                                                00010000D     85
     126       0               2       0                               0D     86
     126      64                                                00010000D     87
     126       0               2       0                               0D     88
     126      66                                                00010000D     89
     126       0               2       0                               0D     90
     126      68                                                00010000D     91
     126       0               2       0                               0D     92
     126      70                                                00010000D     93
     126       0               2       0                               0D     94
     126      72                                                00010000D     95
     126       0               2       0                               0D     96
     126      74                                                00010000D     97
     126       0               2       0                               0D     98
     128      76                                                00010000D     99
     128       0    -127       4       0                               0D    100
     128      80                                                00010000D    101
     128       0    -127       4       0                               0D    102
     128      84                                                00010000D    103
     128       0    -127       4       0                               0D    104
     128      88                                                00010000D    105
     128       0    -127       4       0                               0D    106
     128      92                                                00010000D    107
     128       0    -127       4       0                               0D    108
     128      96                                                00010000D    109
     128       0    -127       3       0                               0D    110
     128      99                                                00010000D    111
     128       0    -127       3       0                               0D    112
     128     102                                                00010000D    113
     128       0    -127       4       0                               0D    114
     128     106                                                00010000D    115
     128       0    -127       3       0                               0D    116
     128     109                                                00010000D    117
     128       0    -127       3       0                               0D    118
     128     112                                                00010000D    119
     128       0    -127       3       0                               0D    120
     502     115                                                00010000D    121
     502                       5       1                               0D    122
     504     120                                                00010001D    123
     504                       7       1                               0D    124
     406     127                                                00000000D    125
     406                       1      15                               0D    126
     314     128                                                00000200D    127
     314                       2       0                               0D    128
186,3,1,0,0,1,125;                                                     1P      1
514,11,5,1,7,1,9,1,11,1,13,1,15,1,17,1,19,1,21,1,23,1,25,1;            3P      2
510,99,1,1,27;                                                         5P      3
510,101,1,1,29;                                                        7P      4
510,103,1,1,31;                                                        9P      5
510,105,1,1,33;                                                       11P      6
510,107,1,1,35;                                                       13P      7
510,109,1,1,37;                                                       15P      8
510,111,1,1,39;                                                       17P      9
510,113,1,1,41;                                                       19P     10
510,115,1,1,43;                                                       21P     11
510,117,2,1,45,47;                                                    23P     12
510,119,1,1,49;                                                       25P     13
508,4,0,123,1,0,0,0,123,2,1,0,0,123,3,1,0,0,123,4,0,0;                27P     14
508,4,0,123,5,0,0,0,123,6,1,0,0,123,7,1,0,0,123,2,0,0;                29P     15
508,4,0,123,8,0,0,0,123,9,1,0,0,123,10,1,0,0,123,6,0,0;               31P     16
508,4,0,123,11,0,0,0,123,4,1,0,0,123,12,1,0,0,123,9,0,0;              33P     17
508,4,0,123,12,0,0,0,123,3,0,0,0,123,7,0,0,0,123,10,0,0;              35P     18
508,4,0,123,13,0,0,0,123,14,1,0,0,123,15,0,0,0,123,16,0,0;            37P     19
508,4,0,123,17,0,0,0,123,16,1,0,0,123,18,0,0,0,123,19,0,0;            39P     20
508,4,0,123,20,0,0,0,123,19,1,0,0,123,21,0,0,0,123,22,0,0;            41P     21
508,4,0,123,23,0,0,0,123,22,1,0,0,123,24,0,0,0,123,14,0,0;            43P     22
508,4,0,123,24,1,0,0,123,21,1,0,0,123,18,1,0,0,123,15,1,0;            45P     23
508,4,0,123,1,1,0,0,123,11,1,0,0,123,8,1,0,0,123,5,1,0;               47P     24
508,4,0,123,23,1,0,0,123,13,1,0,0,123,17,1,0,0,123,20,1,0;            49P     25
126,1,1,0,0,1,0,-1.905,-1.905,5.715,5.715,1.,1.,-38.1,70.9295,        51P     26
81.28,38.1,70.9295,81.28,-1.905,5.715,0.,0.,0.;                       51P     27
126,1,1,0,0,1,0,0.,0.,7.62,7.62,1.,1.,-38.1,70.9295,81.28,-38.1,      53P     28
70.9295,5.08,0.,7.62,0.,0.,0.;                                        53P     29
126,1,1,0,0,1,0,-7.62,-7.62,0.,0.,1.,1.,-38.1,70.9295,5.08,38.1,      55P     30
70.9295,5.08,-7.62,0.,0.,0.,0.;                                       55P     31
126,1,1,0,0,1,0,0.,0.,7.62,7.62,1.,1.,38.1,70.9295,81.28,38.1,        57P     32
70.9295,5.08,0.,7.62,0.,0.,0.;                                        57P     33
126,1,1,0,0,1,0,-3.546475,-3.546475,10.639425,10.639425,1.,1.,        59P     34
-38.1,-70.9295,81.28,-38.1,70.9295,81.28,-3.546475,10.639425,0.,      59P     35
0.,0.;                                                                59P     36
126,1,1,0,0,1,0,0.,0.,7.62,7.62,1.,1.,-38.1,-70.9295,81.28,           61P     37
-38.1,-70.9295,5.08,0.,7.62,0.,0.,0.;                                 61P     38
126,1,1,0,0,1,0,-14.1859,-14.1859,0.,0.,1.,1.,-38.1,-70.9295,         63P     39
5.08,-38.1,70.9295,5.08,-14.1859,0.,0.,0.,0.;                         63P     40
126,1,1,0,0,1,0,-1.905,-1.905,5.715,5.715,1.,1.,38.1,-70.9295,        65P     41
81.28,-38.1,-70.9295,81.28,-1.905,5.715,0.,0.,0.;                     65P     42
126,1,1,0,0,1,0,0.,0.,7.62,7.62,1.,1.,38.1,-70.9295,81.28,38.1,       67P     43
-70.9295,5.08,0.,7.62,0.,0.,0.;                                       67P     44
126,1,1,0,0,1,0,-7.62,-7.62,0.,0.,1.,1.,38.1,-70.9295,5.08,           69P     45
-38.1,-70.9295,5.08,-7.62,0.,0.,0.,0.;                                69P     46
126,1,1,0,0,1,0,-3.546475,-3.546475,10.639425,10.639425,1.,1.,        71P     47
38.1,70.9295,81.28,38.1,-70.9295,81.28,-3.546475,10.639425,0.,        71P     48
0.,0.;                                                                71P     49
126,1,1,0,0,1,0,-14.1859,-14.1859,0.,0.,1.,1.,38.1,70.9295,5.08,      73P     50
38.1,-70.9295,5.08,-14.1859,0.,0.,0.,0.;                              73P     51
126,1,1,0,0,1,0,0.,0.,15.24,15.24,1.,1.,43.18,76.2,0.,43.18,          75P     52
-76.2,0.,0.,15.24,0.,0.,0.;                                           75P     53
126,1,1,0,0,1,0,0.,0.,8.128,8.128,1.,1.,43.18,76.2,0.,43.18,          77P     54
76.2,81.28,0.,8.128,0.,0.,0.;                                         77P     55
126,1,1,0,0,1,0,-15.24,-15.24,0.,0.,1.,1.,43.18,-76.2,81.28,          79P     56
43.18,76.2,81.28,-15.24,0.,0.,0.,0.;                                  79P     57
126,1,1,0,0,1,0,0.,0.,8.128,8.128,1.,1.,43.18,-76.2,0.,43.18,         81P     58
-76.2,81.28,0.,8.128,0.,0.,0.;                                        81P     59
126,1,1,0,0,1,0,0.,0.,8.636,8.636,1.,1.,43.18,-76.2,0.,-43.18,        83P     60
-76.2,0.,0.,8.636,0.,0.,0.;                                           83P     61
126,1,1,0,0,1,0,-8.636,-8.636,0.,0.,1.,1.,-43.18,-76.2,81.28,         85P     62
43.18,-76.2,81.28,-8.636,0.,0.,0.,0.;                                 85P     63
126,1,1,0,0,1,0,0.,0.,8.128,8.128,1.,1.,-43.18,-76.2,0.,-43.18,       87P     64
-76.2,81.28,0.,8.128,0.,0.,0.;                                        87P     65
126,1,1,0,0,1,0,0.,0.,15.24,15.24,1.,1.,-43.18,-76.2,0.,-43.18,       89P     66
76.2,0.,0.,15.24,0.,0.,0.;                                            89P     67
126,1,1,0,0,1,0,-15.24,-15.24,0.,0.,1.,1.,-43.18,76.2,81.28,          91P     68
-43.18,-76.2,81.28,-15.24,0.,0.,0.,0.;                                91P     69
126,1,1,0,0,1,0,0.,0.,8.128,8.128,1.,1.,-43.18,76.2,0.,-43.18,        93P     70
76.2,81.28,0.,8.128,0.,0.,0.;                                         93P     71
126,1,1,0,0,1,0,0.,0.,8.636,8.636,1.,1.,-43.18,76.2,0.,43.18,         95P     72
76.2,0.,0.,8.636,0.,0.,0.;                                            95P     73
126,1,1,0,0,1,0,-8.636,-8.636,0.,0.,1.,1.,43.18,76.2,81.28,           97P     74
-43.18,76.2,81.28,-8.636,0.,0.,0.,0.;                                 97P     75
128,1,1,1,1,0,0,1,0,0,-0.001,-0.001,7.621,7.621,-0.001,-0.001,        99P     76
7.621,7.621,1.,1.,1.,1.,38.11,70.9295,81.29,-38.11,70.9295,           99P     77
81.29,38.11,70.9295,5.07,-38.11,70.9295,5.07,-0.001,7.621,            99P     78
-0.001,7.621;                                                         99P     79
128,1,1,1,1,0,0,1,0,0,-0.001,-0.001,14.1869,14.1869,-0.001,          101P     80
-0.001,7.621,7.621,1.,1.,1.,1.,-38.1,70.9395,81.29,-38.1,            101P     81
-70.9395,81.29,-38.1,70.9395,5.07,-38.1,-70.9395,5.07,-0.001,        101P     82
14.1869,-0.001,7.621;                                                101P     83
128,1,1,1,1,0,0,1,0,0,-0.001,-0.001,7.621,7.621,-0.001,-0.001,       103P     84
7.621,7.621,1.,1.,1.,1.,-38.11,-70.9295,81.29,38.11,-70.9295,        103P     85
81.29,-38.11,-70.9295,5.07,38.11,-70.9295,5.07,-0.001,7.621,         103P     86
-0.001,7.621;                                                        103P     87
128,1,1,1,1,0,0,1,0,0,-0.001,-0.001,14.1869,14.1869,-0.001,          105P     88
-0.001,7.621,7.621,1.,1.,1.,1.,38.1,-70.9395,81.29,38.1,70.9395,     105P     89
81.29,38.1,-70.9395,5.07,38.1,70.9395,5.07,-0.001,14.1869,           105P     90
-0.001,7.621;                                                        105P     91
128,1,1,1,1,0,0,1,0,0,-3.811,-3.811,3.811,3.811,-7.09395,            107P     92
-7.09395,7.09395,7.09395,1.,1.,1.,1.,-38.11,-70.9395,5.08,38.11,     107P     93
-70.9395,5.08,-38.11,70.9395,5.08,38.11,70.9395,5.08,-3.811,         107P     94
3.811,-7.09395,7.09395;                                              107P     95
128,1,1,1,1,0,0,1,0,0,-0.001,-0.001,15.241,15.241,-0.001,-0.001,     109P     96
8.129,8.129,1.,1.,1.,1.,43.18,-76.21,-0.01,43.18,76.21,-0.01,        109P     97
43.18,-76.21,81.29,43.18,76.21,81.29,-0.001,15.241,-0.001,8.129;     109P     98
128,1,1,1,1,0,0,1,0,0,-0.001,-0.001,8.637,8.637,-0.001,-0.001,       111P     99
8.129,8.129,1.,1.,1.,1.,-43.19,-76.2,-0.01,43.19,-76.2,-0.01,        111P    100
-43.19,-76.2,81.29,43.19,-76.2,81.29,-0.001,8.637,-0.001,8.129;      111P    101
128,1,1,1,1,0,0,1,0,0,-0.001,-0.001,15.241,15.241,-0.001,-0.001,     113P    102
8.129,8.129,1.,1.,1.,1.,-43.18,76.21,-0.01,-43.18,-76.21,-0.01,      113P    103
-43.18,76.21,81.29,-43.18,-76.21,81.29,-0.001,15.241,-0.001,         113P    104
8.129;                                                               113P    105
128,1,1,1,1,0,0,1,0,0,-0.001,-0.001,8.637,8.637,-0.001,-0.001,       115P    106
8.129,8.129,1.,1.,1.,1.,43.19,76.2,-0.01,-43.19,76.2,-0.01,          115P    107
43.19,76.2,81.29,-43.19,76.2,81.29,-0.001,8.637,-0.001,8.129;        115P    108
128,1,1,1,1,0,0,1,0,0,-4.319,-4.319,4.319,4.319,-7.621,-7.621,       117P    109
7.621,7.621,1.,1.,1.,1.,-43.19,-76.21,81.28,43.19,-76.21,81.28,      117P    110
-43.19,76.21,81.28,43.19,76.21,81.28,-4.319,4.319,-7.621,7.621;      117P    111
128,1,1,1,1,0,0,1,0,0,-4.319,-4.319,4.319,4.319,-7.621,-7.621,       119P    112
7.621,7.621,1.,1.,1.,1.,43.19,-76.21,0.,-43.19,-76.21,0.,43.19,      119P    113
76.21,0.,-43.19,76.21,0.,-4.319,4.319,-7.621,7.621;                  119P    114
502,16,-38.1,70.9295,81.28,38.1,70.9295,81.28,-38.1,70.9295,         121P    115
5.08,38.1,70.9295,5.08,-38.1,-70.9295,81.28,-38.1,-70.9295,5.08,     121P    116
38.1,-70.9295,81.28,38.1,-70.9295,5.08,43.18,76.2,0.,43.18,          121P    117
-76.2,0.,43.18,76.2,81.28,43.18,-76.2,81.28,-43.18,-76.2,0.,         121P    118
-43.18,-76.2,81.28,-43.18,76.2,0.,-43.18,76.2,81.28;                 121P    119
504,24,51,121,1,121,2,53,121,1,121,3,55,121,3,121,4,57,121,2,        123P    120
121,4,59,121,5,121,1,61,121,5,121,6,63,121,6,121,3,65,121,7,121,     123P    121
5,67,121,7,121,8,69,121,8,121,6,71,121,2,121,7,73,121,4,121,8,       123P    122
75,121,9,121,10,77,121,9,121,11,79,121,12,121,11,81,121,10,121,      123P    123
12,83,121,10,121,13,85,121,14,121,12,87,121,13,121,14,89,121,13,     123P    124
121,15,91,121,16,121,14,93,121,15,121,16,95,121,15,121,9,97,121,     123P    125
11,121,16;                                                           123P    126
406,1,5HBody1;                                                       125P    127
314,62.7450980392157,62.7450980392157,62.7450980392157,13HSteel      127P    128
- Satin;                                                             127P    129
S      1G      3D    128P    129                                        T      1
