                                                                        S      1
,,7Hdial v2,7Hdial v2,7Hunknown,7Hunknown,32,38,7,99,15,,1.,2,2HMM,1,   G      1
0.08,15H20170502.144700,0.01,10000.,7Hunknown,7Hunknown,11,0,;          G      2
     186       1                                                00000000D      1
     186            -243       1       0                               0D      2
     514       2                                                00010000D      3
     514                       2       1                               0D      4
     510       4                                                00010000D      5
     510            -243       1       1                               0D      6
     510       5                                                00010000D      7
     510            -243       1       1                               0D      8
     510       6                                                00010000D      9
     510            -243       1       1                               0D     10
     510       7                                                00010000D     11
     510            -243       1       1                               0D     12
     510       8                                                00010000D     13
     510            -243       1       1                               0D     14
     510       9                                                00010000D     15
     510            -243       1       1                               0D     16
     510      10                                                00010000D     17
     510            -243       1       1                               0D     18
     510      11                                                00010000D     19
     510            -243       1       1                               0D     20
     510      12                                                00010000D     21
     510            -243       1       1                               0D     22
     510      13                                                00010000D     23
     510            -243       1       1                               0D     24
     510      14                                                00010000D     25
     510            -243       1       1                               0D     26
     510      15                                                00010000D     27
     510            -243       1       1                               0D     28
     510      16                                                00010000D     29
     510            -243       1       1                               0D     30
     510      17                                                00010000D     31
     510            -243       1       1                               0D     32
     510      18                                                00010000D     33
     510            -243       1       1                               0D     34
     510      19                                                00010000D     35
     510            -243       1       1                               0D     36
     510      20                                                00010000D     37
     510            -243       1       1                               0D     38
     510      21                                                00010000D     39
     510            -243       1       1                               0D     40
     510      22                                                00010000D     41
     510            -243       1       1                               0D     42
     510      23                                                00010000D     43
     510            -243       1       1                               0D     44
     510      24                                                00010000D     45
     510            -243       1       1                               0D     46
     508      25                                                00010000D     47
     508                       1       1                               0D     48
     508      26                                                00010000D     49
     508                       1       1                               0D     50
     508      27                                                00010000D     51
     508                       1       1                               0D     52
     508      28                                                00010000D     53
     508                       1       1                               0D     54
     508      29                                                00010000D     55
     508                       1       1                               0D     56
     508      30                                                00010000D     57
     508                       1       1                               0D     58
     508      31                                                00010000D     59
     508                       1       1                               0D     60
     508      32                                                00010000D     61
     508                       1       1                               0D     62
     508      33                                                00010000D     63
     508                       1       1                               0D     64
     508      34                                                00010000D     65
     508                       1       1                               0D     66
     508      35                                                00010000D     67
     508                       3       1                               0D     68
     508      38                                                00010000D     69
     508                       1       1                               0D     70
     508      39                                                00010000D     71
     508                       1       1                               0D     72
     508      40                                                00010000D     73
     508                       1       1                               0D     74
     508      41                                                00010000D     75
     508                       3       1                               0D     76
     508      44                                                00010000D     77
     508                       1       1                               0D     78
     508      45                                                00010000D     79
     508                       1       1                               0D     80
     508      46                                                00010000D     81
     508                       1       1                               0D     82
     508      47                                                00010000D     83
     508                       1       1                               0D     84
     508      48                                                00010000D     85
     508                       1       1                               0D     86
     508      49                                                00010000D     87
     508                       1       1                               0D     88
     508      50                                                00010000D     89
     508                       3       1                               0D     90
     508      53                                                00010000D     91
     508                       1       1                               0D     92
     126      54                                                00010000D     93
     126       0               4       0                               0D     94
     126      58                                                00010000D     95
     126       0               2       0                               0D     96
     126      60                                                00010000D     97
     126       0               4       0                               0D     98
     126      64                                                00010000D     99
     126       0               2       0                               0D    100
     126      66                                                00010000D    101
     126       0               4       0                               0D    102
     126      70                                                00010000D    103
     126       0               3       0                               0D    104
     126      73                                                00010000D    105
     126       0               3       0                               0D    106
     126      76                                                00010000D    107
     126       0               4       0                               0D    108
     126      80                                                00010000D    109
     126       0               3       0                               0D    110
     126      83                                                00010000D    111
     126       0               2       0                               0D    112
     126      85                                                00010000D    113
     126       0               4       0                               0D    114
     126      89                                                00010000D    115
     126       0               3       0                               0D    116
     126      92                                                00010000D    117
     126       0               2       0                               0D    118
     126      94                                                00010000D    119
     126       0               8       0                               0D    120
     126     102                                                00010000D    121
     126       0               7       0                               0D    122
     126     109                                                00010000D    123
     126       0               3       0                               0D    124
     126     112                                                00010000D    125
     126       0               4       0                               0D    126
     126     116                                                00010000D    127
     126       0               3       0                               0D    128
     126     119                                                00010000D    129
     126       0               2       0                               0D    130
     126     121                                                00010000D    131
     126       0               4       0                               0D    132
     126     125                                                00010000D    133
     126       0               3       0                               0D    134
     126     128                                                00010000D    135
     126       0               3       0                               0D    136
     126     131                                                00010000D    137
     126       0               4       0                               0D    138
     126     135                                                00010000D    139
     126       0               3       0                               0D    140
     126     138                                                00010000D    141
     126       0               3       0                               0D    142
     126     141                                                00010000D    143
     126       0               5       0                               0D    144
     126     146                                                00010000D    145
     126       0               5       0                               0D    146
     126     151                                                00010000D    147
     126       0               3       0                               0D    148
     126     154                                                00010000D    149
     126       0               7       0                               0D    150
     126     161                                                00010000D    151
     126       0               7       0                               0D    152
     126     168                                                00010000D    153
     126       0              10       0                               0D    154
     126     178                                                00010000D    155
     126       0               4       0                               0D    156
     126     182                                                00010000D    157
     126       0              10       0                               0D    158
     126     192                                                00010000D    159
     126       0              10       0                               0D    160
     126     202                                                00010000D    161
     126       0               3       0                               0D    162
     126     205                                                00010000D    163
     126       0               4       0                               0D    164
     126     209                                                00010000D    165
     126       0               6       0                               0D    166
     126     215                                                00010000D    167
     126       0               4       0                               0D    168
     126     219                                                00010000D    169
     126       0               6       0                               0D    170
     126     225                                                00010000D    171
     126       0              13       0                               0D    172
     126     238                                                00010000D    173
     126       0               5       0                               0D    174
     126     243                                                00010000D    175
     126       0               3       0                               0D    176
     126     246                                                00010000D    177
     126       0               4       0                               0D    178
     126     250                                                00010000D    179
     126       0               2       0                               0D    180
     126     252                                                00010000D    181
     126       0               2       0                               0D    182
     126     254                                                00010000D    183
     126       0               4       0                               0D    184
     126     258                                                00010000D    185
     126       0               2       0                               0D    186
     126     260                                                00010000D    187
     126       0               5       0                               0D    188
     126     265                                                00010000D    189
     126       0               6       0                               0D    190
     126     271                                                00010000D    191
     126       0               2       0                               0D    192
     126     273                                                00010000D    193
     126       0               6       0                               0D    194
     128     279                                                00010000D    195
     128       0    -243       5       0                               0D    196
     128     284                                                00010000D    197
     128       0    -243       6       0                               0D    198
     128     290                                                00010000D    199
     128       0    -243       6       0                               0D    200
     128     296                                                00010000D    201
     128       0    -243       6       0                               0D    202
     128     302                                                00010000D    203
     128       0    -243      14       0                               0D    204
     128     316                                                00010000D    205
     128       0    -243       8       0                               0D    206
     128     324                                                00010000D    207
     128       0    -243       7       0                               0D    208
     128     331                                                00010000D    209
     128       0    -243       7       0                               0D    210
     128     338                                                00010000D    211
     128       0    -243       6       0                               0D    212
     128     344                                                00010000D    213
     128       0    -243      13       0                               0D    214
     128     357                                                00010000D    215
     128       0    -243       7       0                               0D    216
     128     364                                                00010000D    217
     128       0    -243      17       0                               0D    218
     128     381                                                00010000D    219
     128       0    -243      13       0                               0D    220
     128     394                                                00010000D    221
     128       0    -243       3       0                               0D    222
     128     397                                                00010000D    223
     128       0    -243       7       0                               0D    224
     128     404                                                00010000D    225
     128       0    -243       3       0                               0D    226
     128     407                                                00010000D    227
     128       0    -243       6       0                               0D    228
     128     413                                                00010000D    229
     128       0    -243       6       0                               0D    230
     128     419                                                00010000D    231
     128       0    -243       6       0                               0D    232
     128     425                                                00010000D    233
     128       0    -243      13       0                               0D    234
     128     438                                                00010000D    235
     128       0    -243       6       0                               0D    236
     502     444                                                00010000D    237
     502                      19       1                               0D    238
     504     463                                                00010001D    239
     504                      15       1                               0D    240
     406     478                                                00000000D    241
     406                       1      15                               0D    242
     314     479                                                00000200D    243
     314                       2       0                               0D    244
186,3,1,0,0,1,241;                                                     1P      1
514,21,5,1,7,1,9,1,11,1,13,1,15,1,17,1,19,1,21,1,23,1,25,1,27,1,       3P      2
29,1,31,1,33,1,35,1,37,1,39,1,41,1,43,1,45,1;                          3P      3
510,195,1,1,47;                                                        5P      4
510,197,1,1,49;                                                        7P      5
510,199,1,1,51;                                                        9P      6
510,201,1,1,53;                                                       11P      7
510,203,1,1,55;                                                       13P      8
510,205,1,1,57;                                                       15P      9
510,207,1,1,59;                                                       17P     10
510,209,1,1,61;                                                       19P     11
510,211,1,1,63;                                                       21P     12
510,213,1,1,65;                                                       23P     13
510,215,1,1,67;                                                       25P     14
510,217,1,1,69;                                                       27P     15
510,219,1,1,71;                                                       29P     16
510,221,2,1,73,75;                                                    31P     17
510,223,1,1,77;                                                       33P     18
510,225,2,1,79,81;                                                    35P     19
510,227,1,1,83;                                                       37P     20
510,229,1,1,85;                                                       39P     21
510,231,1,1,87;                                                       41P     22
510,233,1,1,89;                                                       43P     23
510,235,1,1,91;                                                       45P     24
508,4,0,239,1,0,0,0,239,2,1,0,0,239,3,0,0,0,239,4,0,0;                47P     25
508,4,0,239,5,0,0,0,239,4,1,0,0,239,6,0,0,0,239,7,0,0;                49P     26
508,4,0,239,8,0,0,0,239,7,1,0,0,239,9,0,0,0,239,10,0,0;               51P     27
508,4,0,239,11,0,0,0,239,10,1,0,0,239,12,0,0,0,239,13,0,0;            53P     28
508,4,0,239,14,0,0,0,239,13,1,0,0,239,15,0,0,0,239,16,0,0;            55P     29
508,4,0,239,17,0,0,0,239,16,1,0,0,239,18,0,0,0,239,19,0,0;            57P     30
508,4,0,239,20,0,0,0,239,19,1,0,0,239,21,0,0,0,239,22,0,0;            59P     31
508,4,0,239,23,0,0,0,239,22,1,0,0,239,24,0,0,0,239,25,0,0;            61P     32
508,4,0,239,26,0,0,0,239,25,1,0,0,239,27,0,0,0,239,28,0,0;            63P     33
508,4,0,239,29,0,0,0,239,28,1,0,0,239,30,0,0,0,239,2,0,0;             65P     34
508,10,0,239,30,1,0,0,239,27,1,0,0,239,24,1,0,0,239,21,1,0,0,         67P     35
239,18,1,0,0,239,15,1,0,0,239,12,1,0,0,239,9,1,0,0,239,6,1,0,0,       67P     36
239,3,1,0;                                                            67P     37
508,4,0,239,31,1,0,0,239,32,1,0,0,239,33,1,0,0,239,32,0,0;            69P     38
508,4,0,239,34,0,0,0,239,35,1,0,0,239,31,0,0,0,239,35,0,0;            71P     39
508,1,0,239,33,0,0;                                                   73P     40
508,10,0,239,1,1,0,0,239,5,1,0,0,239,8,1,0,0,239,11,1,0,0,239,        75P     41
14,1,0,0,239,17,1,0,0,239,20,1,0,0,239,23,1,0,0,239,26,1,0,0,         75P     42
239,29,1,0;                                                           75P     43
508,4,0,239,36,0,0,0,239,37,0,0,0,239,38,0,0,0,239,39,0,0;            77P     44
508,1,0,239,34,1,0;                                                   79P     45
508,2,0,239,40,1,0,0,239,41,1,0;                                      81P     46
508,4,0,239,36,1,0,0,239,42,0,0,0,239,43,0,0,0,239,44,0,0;            83P     47
508,4,0,239,38,1,0,0,239,45,0,0,0,239,46,0,0,0,239,47,0,0;            85P     48
508,3,0,239,46,1,0,0,239,48,0,0,0,239,49,0,0;                         87P     49
508,13,0,239,40,0,0,0,239,41,0,0,0,239,50,1,0,0,239,48,1,0,0,         89P     50
239,45,1,0,0,239,37,1,0,0,239,44,1,0,0,239,51,1,0,0,239,42,1,0,       89P     51
0,239,39,1,0,0,239,47,1,0,0,239,49,1,0,0,239,50,0,0;                  89P     52
508,2,0,239,43,1,0,0,239,51,0,0;                                      91P     53
126,1,1,0,0,1,0,0.168281491583975,0.168281491583975,                  93P     54
0.179999995976686,0.179999995976686,1.,1.,3.48281487560662,0.,        93P     55
0.,3.59999991953373,0.,0.,0.168281491583975,0.179999995976686,        93P     56
0.,0.,0.;                                                             93P     57
126,1,1,0,0,1,0,0.,0.,0.01,0.01,1.,1.,3.48281487560662,0.,0.,         95P     58
3.48281487560662,-0.1,0.,0.,0.01,0.,0.,0.;                            95P     59
126,1,1,0,0,1,0,-0.0299999993294477,-0.0299999993294477,              97P     60
-0.0182814949367367,-0.0182814949367367,1.,1.,3.59999991953373,       97P     61
-0.1,0.,3.48281487560662,-0.1,0.,-0.0299999993294477,                 97P     62
-0.0182814949367367,0.,0.,0.;                                         97P     63
126,1,1,0,0,1,0,0.,0.,0.01,0.01,1.,1.,3.59999991953373,0.,0.,         99P     64
3.59999991953373,-0.1,0.,0.,0.01,0.,0.,0.;                            99P     65
126,1,1,0,0,1,0,-0.10685345742855,-0.10685345742855,                 101P     66
-0.0625166446819802,-0.0625166446819802,1.,1.,3.59999991953373,      101P     67
0.,1.38777878078145D-16,3.39140740092294,0.,-0.391234530214351,      101P     68
-0.10685345742855,-0.0625166446819802,0.,0.,0.;                      101P     69
126,1,1,0,0,1,0,-0.0443368127465697,-0.0443368127465697,0.,0.,       103P     70
1.,1.,3.39140740092294,-0.1,-0.391234530214351,3.59999991953373,     103P     71
-0.1,0.,-0.0443368127465697,0.,0.,0.,0.;                             103P     72
126,1,1,0,0,1,0,0.,0.,0.01,0.01,1.,1.,3.39140740092294,0.,           105P     73
-0.391234530214351,3.39140740092294,-0.1,-0.391234530214351,0.,      105P     74
0.01,0.,0.,0.;                                                       105P     75
126,1,1,0,0,1,0,-0.113869022392944,-0.113869022392944,               107P     76
-0.0703143121836941,-0.0703143121836941,1.,1.,3.39140740092294,      107P     77
0.,-0.391234530214352,3.19999992847443,0.,-1.38777878078145D-16,     107P     78
-0.113869022392944,-0.0703143121836941,0.,0.,0.;                     107P     79
126,1,1,0,0,1,0,-0.0435547102092496,-0.0435547102092496,0.,0.,       109P     80
1.,1.,3.19999992847443,-0.1,0.,3.39140740092294,-0.1,                109P     81
-0.391234530214351,-0.0435547102092496,0.,0.,0.,0.;                  109P     82
126,1,1,0,0,1,0,0.,0.,0.01,0.01,1.,1.,3.19999992847443,0.,0.,        111P     83
3.19999992847443,-0.1,0.,0.,0.01,0.,0.,0.;                           111P     84
126,1,1,0,0,1,0,0.15499999653548,0.15499999653548,                   113P     85
0.164999996311963,0.164999996311963,1.,1.,3.19999992847443,0.,       113P     86
0.,3.29999992623925,0.,0.,0.15499999653548,0.164999996311963,0.,     113P     87
0.,0.;                                                               113P     88
126,1,1,0,0,1,0,-0.00999999977648258,-0.00999999977648258,0.,0.,     115P     89
1.,1.,3.29999992623925,-0.1,0.,3.19999992847443,-0.1,0.,             115P     90
-0.00999999977648258,0.,0.,0.,0.;                                    115P     91
126,1,1,0,0,1,0,0.,0.,0.01,0.01,1.,1.,3.29999992623925,0.,0.,        117P     92
3.29999992623925,-0.1,0.,0.,0.01,0.,0.,0.;                           117P     93
126,4,2,0,0,0,0,-3.14159265358979,-3.14159265358979,                 119P     94
-3.14159265358979,-1.5707963267949,-1.5707963267949,                 119P     95
2.71120841372767D-16,2.71120841372767D-16,2.71120841372767D-16,      119P     96
1.,0.707106781186547,1.,0.707106781186548,1.,3.29999992623925,       119P     97
0.,-3.87355962055736D-18,3.29999992623925,0.,3.29999992623925,       119P     98
2.05940276963327D-16,0.,3.29999992623925,-3.29999992623925,0.,       119P     99
3.29999992623925,-3.29999992623925,0.,9.78802597522897D-16,          119P    100
-3.14159265358979,2.71120841372767D-16,0.,0.,0.;                     119P    101
126,4,2,0,0,0,0,0.,0.,0.,1.5707963267949,1.5707963267949,            121P    102
3.14159265358979,3.14159265358979,3.14159265358979,1.,               121P    103
0.707106781186548,1.,0.707106781186548,1.,-3.29999992623925,         121P    104
-0.1,1.87350135405495D-15,-3.29999992623925,-0.1,                    121P    105
3.29999992623925,9.38687456837755D-16,-0.1,3.29999992623925,         121P    106
3.29999992623925,-0.1,3.29999992623925,3.29999992623925,-0.1,        121P    107
-3.87355962055736D-18,0.,3.14159265358979,0.,0.,0.;                  121P    108
126,1,1,0,0,1,0,0.,0.,0.01,0.01,1.,1.,-3.29999992623925,0.,          123P    109
9.78802597522897D-16,-3.29999992623925,-0.1,                         123P    110
9.78802597522897D-16,0.,0.01,0.,0.,0.;                               123P    111
126,1,1,0,0,1,0,-0.169999996200204,-0.169999996200204,               125P    112
-0.159999996423721,-0.159999996423721,1.,1.,-3.29999992623925,       125P    113
0.,9.78802597522897D-16,-3.19999992847443,0.,0.,                     125P    114
-0.169999996200204,-0.159999996423721,0.,0.,0.;                      125P    115
126,1,1,0,0,1,0,0.,0.,0.00999999977648258,0.00999999977648258,       127P    116
1.,1.,-3.19999992847443,-0.1,0.,-3.29999992623925,-0.1,              127P    117
9.78802597522897D-16,0.,0.00999999977648258,0.,0.,0.;                127P    118
126,1,1,0,0,1,0,0.,0.,0.01,0.01,1.,1.,-3.19999992847443,0.,0.,       129P    119
-3.19999992847443,-0.1,0.,0.,0.01,0.,0.,0.;                          129P    120
126,1,1,0,0,1,0,0.0466419419456056,0.0466419419456056,               131P    121
0.0911071332547801,0.0911071332547801,1.,1.,-3.19999992847443,       131P    122
0.,-2.08166817117217D-16,-3.39140740092294,0.,-0.40134586494322,     131P    123
0.0466419419456056,0.0911071332547801,0.,0.,0.;                      131P    124
126,1,1,0,0,1,0,0.,0.,0.0444651913091745,0.0444651913091745,1.,      133P    125
1.,-3.39140740092294,-0.1,-0.40134586494322,-3.19999992847443,       133P    126
-0.1,0.,0.,0.0444651913091745,0.,0.,0.;                              133P    127
126,1,1,0,0,1,0,0.,0.,0.01,0.01,1.,1.,-3.39140740092294,0.,          135P    128
-0.40134586494322,-3.39140740092294,-0.1,-0.40134586494322,0.,       135P    129
0.01,0.,0.,0.;                                                       135P    130
126,1,1,0,0,1,0,0.0377783140763843,0.0377783140763843,               137P    131
0.0830098674575604,0.0830098674575604,1.,1.,-3.39140740092294,       137P    132
0.,-0.40134586494322,-3.59999991953373,0.,2.08166817117217D-15,      137P    133
0.0377783140763843,0.0830098674575604,0.,0.,0.;                      137P    134
126,1,1,0,0,1,0,0.,0.,0.045231553381176,0.045231553381176,1.,1.,     139P    135
-3.59999991953373,-0.1,1.87350135405495D-15,-3.39140740092294,       139P    136
-0.1,-0.40134586494322,0.,0.045231553381176,0.,0.,0.;                139P    137
126,1,1,0,0,1,0,0.,0.,0.01,0.01,1.,1.,-3.59999991953373,0.,          141P    138
1.87350135405495D-15,-3.59999991953373,-0.1,                         141P    139
1.87350135405495D-15,0.,0.01,0.,0.,0.;                               141P    140
126,1,1,0,0,1,0,-0.185859248173042,-0.185859248173042,               143P    141
-0.174140743780331,-0.174140743780331,1.,1.,-3.59999991953373,       143P    142
0.,1.87350135405495D-15,-3.48281487560662,0.,                        143P    143
1.87350135405495D-15,-0.185859248173042,-0.174140743780331,0.,       143P    144
0.,0.;                                                               143P    145
126,1,1,0,0,1,0,0.00914074746836835,0.00914074746836835,             145P    146
0.0208592518610794,0.0208592518610794,1.,1.,-3.48281487560662,       145P    147
-0.1,1.87350135405495D-15,-3.59999991953373,-0.1,                    145P    148
1.87350135405495D-15,0.00914074746836835,0.0208592518610794,0.,      145P    149
0.,0.;                                                               145P    150
126,1,1,0,0,1,0,0.,0.,0.01,0.01,1.,1.,-3.48281487560662,0.,          147P    151
1.87350135405495D-15,-3.48281487560662,-0.1,                         147P    152
1.87350135405495D-15,0.,0.01,0.,0.,0.;                               147P    153
126,4,2,0,0,0,0,0.,0.,0.,1.5707963267949,1.5707963267949,            149P    154
3.14159265358979,3.14159265358979,3.14159265358979,1.,               149P    155
0.707106781186548,1.,0.707106781186548,1.,-3.48281487560662,0.,      149P    156
1.87350135405495D-15,-3.48281487560662,0.,3.48281487560662,          149P    157
8.86900196502136D-16,0.,3.48281487560662,3.48281487560662,0.,        149P    158
3.48281487560662,3.48281487560662,0.,9.97009610506791D-17,0.,        149P    159
3.14159265358979,0.,0.,0.;                                           149P    160
126,4,2,0,0,0,0,-3.14159265358979,-3.14159265358979,                 151P    161
-3.14159265358979,-1.5707963267949,-1.5707963267949,0.,0.,0.,1.,     151P    162
0.707106781186548,1.,0.707106781186548,1.,3.48281487560662,-0.1,     151P    163
9.97009610506791D-17,3.48281487560662,-0.1,3.48281487560662,         151P    164
8.86900196502136D-16,-0.1,3.48281487560662,-3.48281487560662,        151P    165
-0.1,3.48281487560662,-3.48281487560662,-0.1,                        151P    166
1.87350135405495D-15,-3.14159265358979,0.,0.,0.,0.;                  151P    167
126,8,2,0,1,0,0,-3.14159265358979,-3.14159265358979,                 153P    168
-3.14159265358979,-1.5707963267949,-1.5707963267949,0.,0.,           153P    169
1.5707963267949,1.5707963267949,3.14159265358979,                    153P    170
3.14159265358979,3.14159265358979,1.,0.707106781186548,1.,           153P    171
0.707106781186547,1.,0.707106781186547,1.,0.707106781186548,1.,      153P    172
-4.25,0.3,-5.20474889637625D-16,-4.25,0.3,-4.25,                     153P    173
2.60237444818813D-16,0.3,-4.25,4.25,0.3,-4.25,4.25,0.3,0.,4.25,      153P    174
0.3,4.25,2.60237444818813D-16,0.3,4.25,-4.25,0.3,4.25,-4.25,0.3,     153P    175
5.20474889637625D-16,-3.14159265358979,3.14159265358979,0.,0.,       153P    176
0.;                                                                  153P    177
126,1,1,0,0,1,0,-0.0517395205746254,-0.0517395205746254,             155P    178
0.0517395205746255,0.0517395205746255,1.,1.,-4.25,0.3,0.,-3.95,      155P    179
-2.25514051876985D-16,0.,-0.0517395205746254,0.0517395205746255,     155P    180
0.,0.,0.;                                                            155P    181
126,8,2,0,1,0,0,-3.14159265358979,-3.14159265358979,                 157P    182
-3.14159265358979,-1.5707963267949,-1.5707963267949,0.,0.,           157P    183
1.5707963267949,1.5707963267949,3.14159265358979,                    157P    184
3.14159265358979,3.14159265358979,1.,0.707106781186548,1.,           157P    185
0.707106781186548,1.,0.707106781186548,1.,0.707106781186548,1.,      157P    186
-3.95,0.,4.83735485663205D-16,-3.95,0.,3.95,                         157P    187
2.41867742831602D-16,0.,3.95,3.95,0.,3.95,3.95,0.,0.,3.95,0.,        157P    188
-3.95,2.41867742831602D-16,0.,-3.95,-3.95,0.,-3.95,-3.95,0.,         157P    189
-4.83735485663205D-16,-3.14159265358979,3.14159265358979,0.,0.,      157P    190
0.;                                                                  157P    191
126,8,2,0,1,0,0,-3.14159265358979,-3.14159265358979,                 159P    192
-3.14159265358979,-1.5707963267949,-1.5707963267949,0.,0.,           159P    193
1.5707963267949,1.5707963267949,3.14159265358979,                    159P    194
3.14159265358979,3.14159265358979,1.,0.707106781186548,1.,           159P    195
0.707106781186547,1.,0.707106781186547,1.,0.707106781186548,1.,      159P    196
-4.25,9.5,5.20474889637625D-16,-4.25,9.5,4.25,                       159P    197
2.60237444818813D-16,9.5,4.25,4.25,9.5,4.25,4.25,9.5,0.,4.25,        159P    198
9.5,-4.25,2.60237444818813D-16,9.5,-4.25,-4.25,9.5,-4.25,-4.25,      159P    199
9.5,-5.20474889637625D-16,-3.14159265358979,3.14159265358979,0.,     159P    200
0.,0.;                                                               159P    201
126,1,1,0,0,1,0,-2.23529411764706,-2.23529411764706,                 161P    202
-0.0705882352941176,-0.0705882352941176,1.,1.,-4.25,9.5,0.,          161P    203
-4.25,0.3,0.,-2.23529411764706,-0.0705882352941176,0.,0.,0.;         161P    204
126,1,1,0,0,1,0,-0.147224318643355,-0.147224318643355,               163P    205
0.441672955930064,0.441672955930064,1.,1.,-0.425,3.5,                163P    206
2.94448637286709,-0.425,3.5,-2.94448637286709,                       163P    207
-0.147224318643355,0.441672955930064,0.,0.,0.;                       163P    208
126,2,2,0,0,0,0,-1.71414389570026,-1.71414389570026,                 165P    209
-1.71414389570026,-1.42744875788953,-1.42744875788953,               165P    210
-1.42744875788953,1.,0.989743318610792,1.,0.425,3.5,                 165P    211
2.94448637286709,-1.73472347597681D-16,3.5,3.00582983896849,         165P    212
-0.425,3.5,2.94448637286709,-1.71414389570026,-1.42744875788953,     165P    213
0.,0.,0.;                                                            165P    214
126,1,1,0,0,1,0,-0.147224318643355,-0.147224318643355,               167P    215
0.441672955930064,0.441672955930064,1.,1.,0.425,3.5,                 167P    216
-2.94448637286709,0.425,3.5,2.94448637286709,-0.147224318643355,     167P    217
0.441672955930064,0.,0.,0.;                                          167P    218
126,2,2,0,0,0,0,1.42744875788953,1.42744875788953,                   169P    219
1.42744875788953,1.71414389570026,1.71414389570026,                  169P    220
1.71414389570026,1.,0.989743318610792,1.,-0.425,3.5,                 169P    221
-2.94448637286709,4.85722573273506D-16,3.5,-3.00582983896849,        169P    222
0.425000000000001,3.5,-2.94448637286709,1.42744875788953,            169P    223
1.71414389570026,0.,0.,0.;                                           169P    224
126,8,2,0,0,0,0,-7.99732920287985,-7.99732920287985,                 171P    225
-7.99732920287985,-6.78339506555734,-6.78339506555734,               171P    226
-5.56946092823482,-5.56946092823482,-4.35552679091231,               171P    227
-4.35552679091231,-3.14159265358979,-3.14159265358979,               171P    228
-3.14159265358979,1.,0.821381713020479,1.,0.821381713020478,1.,      171P    229
0.82138171302048,1.,0.82138171302048,1.,0.425,9.5,                   171P    230
2.94448637286709,-1.6196923166422,9.5,3.23961228772293,              171P    231
-2.61050888770853,9.5,1.42683858484231,-3.60132545877485,9.5,        171P    232
-0.385935118038314,-2.2488886144049,9.5,-1.94759467035623,           171P    233
-0.896451770034953,9.5,-3.50925422267415,1.03927411498252,9.5,       171P    234
-2.78756781333249,2.975,9.5,-2.06588140399084,2.975,9.5,             171P    235
3.64332422746338D-16,-7.99732920287985,-3.14159265358979,0.,0.,      171P    236
0.;                                                                  171P    237
126,2,2,0,0,0,0,-3.14159265358979,-3.14159265358979,                 173P    238
-3.14159265358979,-1.71414389570026,-1.71414389570026,               173P    239
-1.71414389570026,1.,0.755928946018455,1.,2.975,9.5,                 173P    240
3.64332422746338D-16,2.975,9.5,2.57642557625871,0.425,9.5,           173P    241
2.94448637286709,-3.14159265358979,-1.71414389570026,0.,0.,0.;       173P    242
126,1,1,0,0,1,0,-0.85,-0.85,-0.6,-0.6,1.,1.,-0.425,1.,               175P    243
-2.94448637286709,-0.425,3.5,-2.94448637286709,-0.85,-0.6,0.,0.,     175P    244
0.;                                                                  175P    245
126,1,1,0,0,1,0,-0.147224318643355,-0.147224318643355,               177P    246
0.441672955930064,0.441672955930064,1.,1.,-0.425,1.,                 177P    247
2.94448637286709,-0.425,1.,-2.94448637286709,-0.147224318643355,     177P    248
0.441672955930064,0.,0.,0.;                                          177P    249
126,1,1,0,0,1,0,0.6,0.6,0.85,0.85,1.,1.,-0.425,3.5,                  179P    250
2.94448637286709,-0.425,1.,2.94448637286709,0.6,0.85,0.,0.,0.;       179P    251
126,1,1,0,0,1,0,-0.85,-0.85,-0.6,-0.6,1.,1.,0.425,1.,                181P    252
2.94448637286709,0.425,3.5,2.94448637286709,-0.85,-0.6,0.,0.,0.;     181P    253
126,1,1,0,0,1,0,-0.147224318643355,-0.147224318643355,               183P    254
0.441672955930064,0.441672955930064,1.,1.,0.425,1.,                  183P    255
-2.94448637286709,0.425,1.,2.94448637286709,-0.147224318643355,      183P    256
0.441672955930064,0.,0.,0.;                                          183P    257
126,1,1,0,0,1,0,0.6,0.6,0.85,0.85,1.,1.,0.425,3.5,                   185P    258
-2.94448637286709,0.425,1.,-2.94448637286709,0.6,0.85,0.,0.,0.;      185P    259
126,2,2,0,0,0,0,-3.14159265358979,-3.14159265358979,                 187P    260
-3.14159265358979,-1.71414389570026,-1.71414389570026,               187P    261
-1.71414389570026,1.,0.755928946018455,1.,2.975,1.,                  187P    262
3.64332422746338D-16,2.975,1.,2.57642557625871,0.425,1.,             187P    263
2.94448637286709,-3.14159265358979,-1.71414389570026,0.,0.,0.;       187P    264
126,2,2,0,0,0,0,-4.56904141147932,-4.56904141147932,                 189P    265
-4.56904141147932,-3.14159265358979,-3.14159265358979,               189P    266
-3.14159265358979,1.,0.755928946018454,1.,0.425000000000002,1.,      189P    267
-2.94448637286709,2.975,1.,-2.5764255762587,2.975,1.,                189P    268
3.64332422746338D-16,-4.56904141147932,-3.14159265358979,0.,0.,      189P    269
0.;                                                                  189P    270
126,1,1,0,0,1,0,0.,0.,2.85714285714286,2.85714285714286,1.,1.,       191P    271
2.975,9.5,0.,2.975,1.,0.,0.,2.85714285714286,0.,0.,0.;               191P    272
126,4,2,0,0,0,0,-1.42744875788953,-1.42744875788953,                 193P    273
-1.42744875788953,0.,0.,1.42744875788953,1.42744875788953,           193P    274
1.42744875788953,1.,0.755928946018455,1.,0.755928946018455,1.,       193P    275
-0.425,1.,2.94448637286709,-2.975,1.,2.57642557625871,-2.975,1.,     193P    276
0.,-2.975,1.,-2.57642557625871,-0.425,1.,-2.94448637286709,          193P    277
-1.42744875788953,1.42744875788953,0.,0.,0.;                         193P    278
128,1,1,1,1,0,0,1,0,0,-0.001,-0.001,0.012718504392711,               195P    279
0.012718504392711,-0.001,-0.001,0.011,0.011,1.,1.,1.,1.,             195P    280
3.60999991953373,0.01,0.,3.47281487560662,0.01,0.,                   195P    281
3.60999991953373,-0.11,0.,3.47281487560662,-0.11,0.,-0.001,          195P    282
0.012718504392711,-0.001,0.011;                                      195P    283
128,1,1,1,1,0,0,1,0,0,-0.001,-0.001,0.0453368127465697,              197P    284
0.0453368127465697,-0.001,-0.001,0.011,0.011,1.,1.,1.,1.,            197P    285
3.38670267575915,0.01,-0.400058676696207,3.60470464469751,0.01,      197P    286
0.00882414648185614,3.38670267575915,-0.11,-0.400058676696207,       197P    287
3.60470464469751,-0.11,0.00882414648185614,-0.001,                   197P    288
0.0453368127465697,-0.001,0.011;                                     197P    289
128,1,1,1,1,0,0,1,0,0,-0.001,-0.001,0.0445547102092496,              199P    290
0.0445547102092496,-0.001,-0.001,0.011,0.011,1.,1.,1.,1.,            199P    291
3.19560528386472,0.01,0.00898259977703321,3.39580204553264,0.01,     199P    292
-0.400217129991385,3.19560528386472,-0.11,0.00898259977703321,       199P    293
3.39580204553264,-0.11,-0.400217129991385,-0.001,                    199P    294
0.0445547102092496,-0.001,0.011;                                     199P    295
128,1,1,1,1,0,0,1,0,0,-0.000999999977648258,                         201P    296
-0.000999999977648258,0.0109999997541308,0.0109999997541308,         201P    297
-0.001,-0.001,0.011,0.011,1.,1.,1.,1.,3.30999992601573,0.01,0.,      201P    298
3.18999992869794,0.01,0.,3.30999992601573,-0.11,0.,                  201P    299
3.18999992869794,-0.11,0.,-0.000999999977648258,                     201P    300
0.0109999997541308,-0.001,0.011;                                     201P    301
128,1,4,1,2,0,0,0,0,0,0.,0.,0.0303030309803558,                      203P    302
0.0303030309803558,-3.14159265358979,-3.14159265358979,              203P    303
-3.14159265358979,-1.5707963267949,-1.5707963267949,                 203P    304
2.71120841372767D-16,2.71120841372767D-16,2.71120841372767D-16,      203P    305
1.,1.,0.707106781186548,0.707106781186548,1.,1.,                     203P    306
0.707106781186548,0.707106781186548,1.,1.,3.29999992623925,0.,       203P    307
-1.87350135405495D-15,3.29999992623925,-0.1,                         203P    308
-1.87350135405495D-15,3.29999992623925,0.,3.29999992623925,          203P    309
3.29999992623925,-0.1,3.29999992623925,1.87350135405495D-15,0.,      203P    310
3.29999992623925,1.87350135405495D-15,-0.1,3.29999992623925,         203P    311
-3.29999992623925,0.,3.29999992623925,-3.29999992623925,-0.1,        203P    312
3.29999992623925,-3.29999992623925,0.,1.87350135405495D-15,          203P    313
-3.29999992623925,-0.1,1.87350135405495D-15,0.,                      203P    314
0.0303030309803558,-3.14159265358979,2.71120841372767D-16;           203P    315
128,1,1,1,1,0,0,1,0,0,-0.000999999977648258,                         205P    316
-0.000999999977648258,0.0109999997541308,0.0109999997541308,         205P    317
-0.001,-0.001,0.011,0.011,1.,1.,1.,1.,-3.18999992869794,0.01,        205P    318
-9.78802597522898D-17,-3.30999992601573,0.01,                        205P    319
1.07668285727519D-15,-3.18999992869794,-0.11,                        205P    320
-9.78802597522898D-17,-3.30999992601573,-0.11,                       205P    321
1.07668285727519D-15,-0.000999999977648258,0.0109999997541308,       205P    322
-0.001,0.011;                                                        205P    323
128,1,1,1,1,0,0,1,0,0,-0.00100000000000003,-0.00100000000000003,     207P    324
0.0454651913091745,0.0454651913091745,-0.001,-0.001,0.011,0.011,     207P    325
1.,1.,1.,1.,-3.39571205961916,0.01,-0.410371933495419,               207P    326
-3.1956952697782,0.01,0.00902606855219833,-3.39571205961916,         207P    327
-0.11,-0.410371933495419,-3.1956952697782,-0.11,                     207P    328
0.00902606855219833,-0.00100000000000003,0.0454651913091745,         207P    329
-0.001,0.011;                                                        207P    330
128,1,1,1,1,0,0,1,0,0,-0.00100000000000003,-0.00100000000000003,     209P    331
0.046231553381176,0.046231553381176,-0.001,-0.001,0.011,0.011,       209P    332
1.,1.,1.,1.,-3.60461157894001,0.01,0.0088731391018365,               209P    333
-3.38679574151666,0.01,-0.410219004045055,-3.60461157894001,         209P    334
-0.11,0.0088731391018365,-3.38679574151666,-0.11,                    209P    335
-0.410219004045055,-0.00100000000000003,0.046231553381176,           209P    336
-0.001,0.011;                                                        209P    337
128,1,1,1,1,0,0,1,0,0,-0.001,-0.001,0.012718504392711,               211P    338
0.012718504392711,-0.001,-0.001,0.011,0.011,1.,1.,1.,1.,             211P    339
-3.47281487560662,0.01,1.87350135405495D-15,-3.60999991953373,       211P    340
0.01,1.87350135405495D-15,-3.47281487560662,-0.11,                   211P    341
1.87350135405495D-15,-3.60999991953373,-0.11,                        211P    342
1.87350135405495D-15,-0.001,0.012718504392711,-0.001,0.011;          211P    343
128,1,4,1,2,0,0,0,0,0,0.,0.,0.028712407512783,0.028712407512783,     213P    344
-3.14159265358979,-3.14159265358979,-3.14159265358979,               213P    345
-1.5707963267949,-1.5707963267949,0.,0.,0.,1.,1.,                    213P    346
0.707106781186548,0.707106781186548,1.,1.,0.707106781186548,         213P    347
0.707106781186548,1.,1.,3.48281487560662,-0.1,                       213P    348
-1.87350135405495D-15,3.48281487560662,0.,-1.87350135405495D-15,     213P    349
3.48281487560662,-0.1,3.48281487560662,3.48281487560662,0.,          213P    350
3.48281487560662,1.87350135405495D-15,-0.1,3.48281487560662,         213P    351
1.87350135405495D-15,0.,3.48281487560662,-3.48281487560662,-0.1,     213P    352
3.48281487560662,-3.48281487560662,0.,3.48281487560662,              213P    353
-3.48281487560662,-0.1,1.87350135405495D-15,-3.48281487560662,       213P    354
0.,1.87350135405495D-15,0.,0.028712407512783,-3.14159265358979,      213P    355
0.;                                                                  213P    356
128,1,1,1,1,0,0,1,0,0,-0.360999991953373,-0.360999991953373,         215P    357
0.360999991953373,0.360999991953373,-0.195208037027492,              215P    358
-0.195208037027492,0.195208037027492,0.195208037027492,1.,1.,1.,     215P    359
1.,3.60999991953373,-0.1,3.49281487560662,-3.60999991953373,         215P    360
-0.1,3.49281487560662,3.60999991953373,-0.1,-0.41134586494322,       215P    361
-3.60999991953373,-0.1,-0.41134586494322,-0.360999991953373,         215P    362
0.360999991953373,-0.195208037027492,0.195208037027492;              215P    363
128,1,8,1,2,0,1,0,0,1,-0.0517395205746255,-0.0517395205746255,       217P    364
0.0517395205746254,0.0517395205746254,-3.14159265358979,             217P    365
-3.14159265358979,-3.14159265358979,-1.5707963267949,                217P    366
-1.5707963267949,0.,0.,1.5707963267949,1.5707963267949,              217P    367
3.14159265358979,3.14159265358979,3.14159265358979,1.,1.,            217P    368
0.707106781186548,0.707106781186548,1.,1.,0.707106781186548,         217P    369
0.707106781186548,1.,1.,0.707106781186548,0.707106781186548,1.,      217P    370
1.,0.707106781186548,0.707106781186548,1.,1.,-4.25,0.3,0.,-3.95,     217P    371
-2.25514051876985D-16,0.,-4.25,0.3,4.25,-3.95,                       217P    372
-2.25514051876985D-16,3.95,0.,0.3,4.25,0.,-2.25514051876985D-16,     217P    373
3.95,4.25,0.3,4.25,3.95,-2.25514051876985D-16,3.95,4.25,0.3,0.,      217P    374
3.95,-2.25514051876985D-16,0.,4.25,0.3,-4.25,3.95,                   217P    375
-2.25514051876985D-16,-3.95,0.,0.3,-4.25,0.,                         217P    376
-2.25514051876985D-16,-3.95,-4.25,0.3,-4.25,-3.95,                   217P    377
-2.25514051876985D-16,-3.95,-4.25,0.3,0.,-3.95,                      217P    378
-2.25514051876985D-16,0.,-0.0517395205746255,0.0517395205746254,     217P    379
-3.14159265358979,3.14159265358979;                                  217P    380
128,1,8,1,2,0,1,0,0,1,0.0705882352941176,0.0705882352941176,         219P    381
2.23529411764706,2.23529411764706,-3.14159265358979,                 219P    382
-3.14159265358979,-3.14159265358979,-1.5707963267949,                219P    383
-1.5707963267949,0.,0.,1.5707963267949,1.5707963267949,              219P    384
3.14159265358979,3.14159265358979,3.14159265358979,1.,1.,            219P    385
0.707106781186548,0.707106781186548,1.,1.,0.707106781186548,         219P    386
0.707106781186548,1.,1.,0.707106781186548,0.707106781186548,1.,      219P    387
1.,0.707106781186548,0.707106781186548,1.,1.,-4.25,9.5,0.,-4.25,     219P    388
0.3,0.,-4.25,9.5,4.25,-4.25,0.3,4.25,0.,9.5,4.25,0.,0.3,4.25,        219P    389
4.25,9.5,4.25,4.25,0.3,4.25,4.25,9.5,0.,4.25,0.3,0.,4.25,9.5,        219P    390
-4.25,4.25,0.3,-4.25,0.,9.5,-4.25,0.,0.3,-4.25,-4.25,9.5,-4.25,      219P    391
-4.25,0.3,-4.25,-4.25,9.5,0.,-4.25,0.3,0.,0.0705882352941176,        219P    392
2.23529411764706,-3.14159265358979,3.14159265358979;                 219P    393
128,1,1,1,1,0,0,1,0,0,-0.396,-0.396,0.396,0.396,-0.396,-0.396,       221P    394
0.396,0.396,1.,1.,1.,1.,3.96,0.,3.96,-3.96,0.,3.96,3.96,0.,          221P    395
-3.96,-3.96,0.,-3.96,-0.396,0.396,-0.396,0.396;                      221P    396
128,1,1,1,1,0,0,1,0,0,-0.0435000000000001,-0.0435000000000001,       223P    397
0.0435000000000001,0.0435000000000001,-0.301582983896849,            223P    398
-0.301582983896849,0.301582983896849,0.301582983896849,1.,1.,1.,     223P    399
1.,0.435000000000001,3.5,-3.01582983896849,-0.435,3.5,               223P    400
-3.01582983896849,0.435000000000001,3.5,3.01582983896849,-0.435,     223P    401
3.5,3.01582983896849,-0.0435000000000001,0.0435000000000001,         223P    402
-0.301582983896849,0.301582983896849;                                223P    403
128,1,1,1,1,0,0,1,0,0,-0.426,-0.426,0.426,0.426,-0.426,-0.426,       225P    404
0.426,0.426,1.,1.,1.,1.,-4.26,9.5,4.26,4.26,9.5,4.26,-4.26,9.5,      225P    405
-4.26,4.26,9.5,-4.26,-0.426,0.426,-0.426,0.426;                      225P    406
128,1,1,1,1,0,0,1,0,0,-0.00100000000000006,-0.00100000000000006,     227P    407
0.589897274573418,0.589897274573418,0.599,0.599,0.851,0.851,1.,      227P    408
1.,1.,1.,-0.425,3.51,2.95448637286709,-0.425,3.51,                   227P    409
-2.95448637286709,-0.425,0.99,2.95448637286709,-0.425,0.99,          227P    410
-2.95448637286709,-0.00100000000000006,0.589897274573418,0.599,      227P    411
0.851;                                                               227P    412
128,1,1,1,1,0,0,1,0,0,-0.00100000000000006,-0.00100000000000006,     229P    413
0.589897274573418,0.589897274573418,0.599,0.599,0.851,0.851,1.,      229P    414
1.,1.,1.,0.425,3.51,-2.95448637286709,0.425,3.51,                    229P    415
2.95448637286709,0.425,0.99,-2.95448637286709,0.425,0.99,            229P    416
2.95448637286709,-0.00100000000000006,0.589897274573418,0.599,       229P    417
0.851;                                                               229P    418
128,1,1,1,1,0,0,1,0,0,-0.2985,-0.2985,-0.0415,-0.0415,               231P    419
-0.295448637286709,-0.295448637286709,0.295448637286709,             231P    420
0.295448637286709,1.,1.,1.,1.,2.985,1.,-2.95448637286709,0.415,      231P    421
1.,-2.95448637286709,2.985,1.,2.95448637286709,0.415,1.,             231P    422
2.95448637286709,-0.2985,-0.0415,-0.295448637286709,                 231P    423
0.295448637286709;                                                   231P    424
128,1,8,1,2,0,1,0,0,1,0.,0.,2.85714285714286,2.85714285714286,       233P    425
-3.14159265358979,-3.14159265358979,-3.14159265358979,               233P    426
-1.5707963267949,-1.5707963267949,0.,0.,1.5707963267949,             233P    427
1.5707963267949,3.14159265358979,3.14159265358979,                   233P    428
3.14159265358979,1.,1.,0.707106781186548,0.707106781186548,1.,       233P    429
1.,0.707106781186548,0.707106781186548,1.,1.,0.707106781186548,      233P    430
0.707106781186548,1.,1.,0.707106781186548,0.707106781186548,1.,      233P    431
1.,2.975,9.5,0.,2.975,1.,0.,2.975,9.5,2.975,2.975,1.,2.975,0.,       233P    432
9.5,2.975,0.,1.,2.975,-2.975,9.5,2.975,-2.975,1.,2.975,-2.975,       233P    433
9.5,0.,-2.975,1.,0.,-2.975,9.5,-2.975,-2.975,1.,-2.975,0.,9.5,       233P    434
-2.975,0.,1.,-2.975,2.975,9.5,-2.975,2.975,1.,-2.975,2.975,9.5,      233P    435
0.,2.975,1.,0.,0.,2.85714285714286,-3.14159265358979,                233P    436
3.14159265358979;                                                    233P    437
128,1,1,1,1,0,0,1,0,0,0.0415,0.0415,0.2985,0.2985,                   235P    438
-0.295448637286709,-0.295448637286709,0.295448637286709,             235P    439
0.295448637286709,1.,1.,1.,1.,-0.415,1.,-2.95448637286709,           235P    440
-2.985,1.,-2.95448637286709,-0.415,1.,2.95448637286709,-2.985,       235P    441
1.,2.95448637286709,0.0415,0.2985,-0.295448637286709,                235P    442
0.295448637286709;                                                   235P    443
502,34,3.48281487560662,0.,0.,3.59999991953373,0.,0.,                237P    444
3.48281487560662,-0.1,0.,3.59999991953373,-0.1,0.,                   237P    445
3.39140740092294,0.,-0.391234530214351,3.39140740092294,-0.1,        237P    446
-0.391234530214351,3.19999992847443,0.,0.,3.19999992847443,-0.1,     237P    447
0.,3.29999992623925,0.,0.,3.29999992623925,-0.1,0.,                  237P    448
-3.29999992623925,0.,9.78802597522897D-16,-3.29999992623925,         237P    449
-0.1,9.78802597522897D-16,-3.19999992847443,0.,0.,                   237P    450
-3.19999992847443,-0.1,0.,-3.39140740092294,0.,                      237P    451
-0.40134586494322,-3.39140740092294,-0.1,-0.40134586494322,          237P    452
-3.59999991953373,0.,1.87350135405495D-15,-3.59999991953373,         237P    453
-0.1,1.87350135405495D-15,-3.48281487560662,0.,                      237P    454
1.87350135405495D-15,-3.48281487560662,-0.1,                         237P    455
1.87350135405495D-15,-4.25,0.3,-5.20474889637625D-16,-3.95,0.,       237P    456
4.83735485663205D-16,-4.25,9.5,5.20474889637625D-16,-0.425,3.5,      237P    457
2.94448637286709,-0.425,3.5,-2.94448637286709,0.425,3.5,             237P    458
2.94448637286709,0.425000000000001,3.5,-2.94448637286709,0.425,      237P    459
9.5,2.94448637286709,2.975,9.5,0.,-0.425,1.,-2.94448637286709,       237P    460
-0.425,1.,2.94448637286709,0.425,1.,2.94448637286709,0.425,1.,       237P    461
-2.94448637286709,2.975,1.,0.;                                       237P    462
504,51,93,237,1,237,2,95,237,1,237,3,97,237,4,237,3,99,237,2,        239P    463
237,4,101,237,2,237,5,103,237,6,237,4,105,237,5,237,6,107,237,5,     239P    464
237,7,109,237,8,237,6,111,237,7,237,8,113,237,7,237,9,115,237,       239P    465
10,237,8,117,237,9,237,10,119,237,9,237,11,121,237,12,237,10,        239P    466
123,237,11,237,12,125,237,11,237,13,127,237,14,237,12,129,237,       239P    467
13,237,14,131,237,13,237,15,133,237,16,237,14,135,237,15,237,16,     239P    468
137,237,15,237,17,139,237,18,237,16,141,237,17,237,18,143,237,       239P    469
17,237,19,145,237,20,237,18,147,237,19,237,20,149,237,19,237,1,      239P    470
151,237,3,237,20,153,237,21,237,21,155,237,21,237,22,157,237,22,     239P    471
237,22,159,237,23,237,23,161,237,23,237,21,163,237,24,237,25,        239P    472
165,237,26,237,24,167,237,27,237,26,169,237,25,237,27,171,237,       239P    473
28,237,29,173,237,29,237,28,175,237,30,237,25,177,237,31,237,30,     239P    474
179,237,24,237,31,181,237,32,237,26,183,237,33,237,32,185,237,       239P    475
27,237,33,187,237,34,237,32,189,237,33,237,34,191,237,29,237,34,     239P    476
193,237,31,237,30;                                                   239P    477
406,1,5HBody1;                                                       241P    478
314,62.7450980392157,62.7450980392157,62.7450980392157,13HSteel      243P    479
- Satin;                                                             243P    480
S      1G      2D    244P    480                                        T      1
